<svg viewBox="0 0 464.96 485.01" xmlns="http://www.w3.org/2000/svg"><path d="m285.75 369.42c1.17.4 1.97 1.35 2.85 2.12 8.49 7.46 16.05 15.75 22.14 25.32 3.44 5.42 6.11 11.18 7.66 17.44.86 3.46 1.2 7 .59 10.45-1.13 6.5-4.85 11.13-11.58 12.92-3.82 1.02-7.72 1.02-11.54-.31-1.2-.42-2.43-.78-3.74-.68-1.88.14-3.06 1.61-2.69 3.44.13.62.32 1.24.6 1.81 1.42 2.9 2.04 6.03 2.64 9.15.79 4.07 1.31 8.16 1.62 12.3.21 2.79.11 5.58.28 8.36-.7.49-.88 1.31-1.23 2.02-.68 1.36-1.45 2.66-2.43 3.84-2.29 2.76-5.37 3.96-8.82 4.2-4.29.3-8.6.39-12.9.58-1.11.05-2.21.14-3.32.28-2.72.34-5.42-.05-7.99-.98-2.88-1.04-4.41-3.31-4.99-6.24-.35-1.8-.57-3.62-.46-5.47.03-.48.05-.98-.06-1.43-.33-1.31-.97-2.28-2.46-2.6-1.43-.3-2.87-.5-4.27-.24-1.28.24-2.54.25-3.81.25h-21.09c-.79 0-1.6.09-2.38-.17-1.22-.42-2.37.12-3.52.32-.74.13-1.13.81-1.42 1.51-.32.77-.27 1.57-.26 2.36.06 3.03-.8 5.84-2.23 8.47-1.58 2.89-4 4.46-7.39 4.39l-8.15-.06c-1.83.01-3.66.24-5.48.36-6.02.41-11.6-.79-15.93-5.46l-2.8-2.95c-.16-1.49-.26-3-.49-4.48-.47-3.1-.32-6.18-.04-9.29.61-6.79 2.51-13.28 4.21-19.83.68-2.61-.1-3.51-2.78-2.85-2.82.7-5.65 1.02-8.53.83-4.03-.26-7.86-1.21-11.2-3.66-2.9-2.13-4.62-5.01-5.47-8.45-.89-3.64-.64-7.28.19-10.9 1.38-5.96 3.89-11.45 7.07-16.66 3.25-5.33 7.11-10.2 11.09-15 4.31-5.2 9.52-9.43 14.51-13.9.1-.09.3-.06.45-.08.08.39.21.77.25 1.16.46 4.44 1.35 8.8 3 12.95 2.64 6.68 7.2 11.55 13.85 14.4-.05 3.98-.14 7.94.89 11.85 1.11 4.2 2.85 8.1 5.27 11.67 2.2 3.24 4.88 6.08 7.72 8.78 2.15 2.05 4.59 3.7 7.25 4.98 3.98 1.92 8.2 2.93 12.64 2.9 2.15-.02 4.27-.1 6.41-.44 3.15-.49 6.24-1.18 9.15-2.46 5.74-2.54 10.21-6.63 13.89-11.67 1.89-2.59 3.48-5.35 4.72-8.28 1.78-4.18 3.02-8.52 3.01-13.13l.04-3.11c4.67-1.93 8.54-4.89 11.29-9.16 3.73-5.81 5.39-12.29 5.89-19.11.06-.79-.11-1.6.26-2.35h.02z" fill="#9a6bbb"/><path d="m307.62 301.27-8.4-1.72c-8.93-2.33-17.03-6.25-24.07-12.27-1.71-1.46-3.01-3.3-4.44-5.02-1.58-1.9-3.13-3.82-5.08-5.37-.31-.24-.68-.41-1.01-.61-.34-1.58-1.08-2.99-1.85-4.4l-3.28-6.12c-2.29-4.3-3.55-8.87-3.61-13.75-.03-2.27-.96-4.17-2.4-5.86-1-1.17-2.2-2.08-3.54-2.82-2.67-1.46-5.4-2.76-8.3-3.68-2.67-.84-5.4-1.47-8.21-1.48-6.15-.02-11.77 1.9-17.02 4.95-3.4 1.98-5.47 5.08-6.51 8.84-.3 1.07-.5 2.18-.63 3.29-.5 4.35-1.88 8.38-4.24 12.09-1.2 1.88-2.24 3.87-3.29 5.84-.68 1.27-1.2 2.61-1.37 4.06-.7.28-1.13.88-1.6 1.41-2.25 2.48-4.68 4.78-7.12 7.07-4.03 3.79-8.49 6.98-13.39 9.54-3.4 1.78-7.04 2.93-10.78 3.78l-9.07 2.04c-3.17-.36-6.35-.17-9.52-.18a37.39 37.39 0 0 1 -10.56-1.56c-4.35-1.29-8.48-3.13-12.64-4.91-1.45-.62-2.89-1.26-4.47-1.46-.4-1.03-1.32-1.59-2.11-2.22-3.75-3-7.25-6.25-10.55-9.73-2.86-3.02-5.24-6.4-7.32-10.01-2.68-4.64-4.79-9.53-6.59-14.57a21.77 21.77 0 0 0 -.54-1.33c-.59-1.38-1.63-2.13-3.15-2.15-3.03-.05-6.03-.55-9.06-.58-1.82-.02-3.64-.34-5.48-.35a47.89 47.89 0 0 0 -6.67.42c-.62-1.42-.63-2.96-.82-4.45-.85-6.52-.65-13.03.45-19.52.08-.47.25-.92.38-1.38l18.69-.08a14.58 14.58 0 0 0 3.08-.32c1.4-.29 2.26-1.11 2.8-2.35.28-.65.52-1.34.69-2.03 1.83-7.16 5.32-13.48 9.91-19.2 5.25-6.54 11.56-11.89 18.66-16.31 5.88-3.66 12.29-6 19.11-7.22 4.17-.75 8.38-1.15 12.61-.93 11.24.59 21.6 3.78 30.73 10.56 3.08 2.29 6.08 4.67 8.75 7.43 7.13 7.36 12.22 15.89 14.61 25.94.57 2.4 1.01 4.83 1.27 7.28.11.97.34 1.89.69 2.77.34.86 1 1.06 1.94.83 1.1-.27 2.08-.81 3.07-1.33 3.55-1.88 7.28-3.26 11.24-3.88 3.41-.54 6.85-.54 10.26-.03 4.29.63 8.33 2.09 12.16 4.13.63.34 1.29.65 1.97.86.93.29 1.5-.04 1.93-.92.29-.59.39-1.2.43-1.85.46-6.71 2.43-12.98 5.62-18.87a66.9 66.9 0 0 1 17.04-20.48c7.62-6.13 16.27-9.89 25.88-11.62 4.91-.88 9.83-1.14 14.77-.81 5.43.36 10.68 1.68 15.74 3.72 6.43 2.6 12.1 6.37 17.4 10.81 6.33 5.31 11.3 11.69 15.16 18.95 1.38 2.6 2.58 5.3 3.52 8.11.3.91.62 1.82 1.05 2.66 1.13 2.17 2.88 3.28 5.41 3.22 3.35-.08 6.71-.03 10.06 0 .95 0 1.91 0 2.86.24.6.14 1.29.14 1.9.02 1.5-.3 3.01-.29 4.53-.31.85 1.67 1.16 3.47 1.04 5.31-.34 5.23.03 10.47-.16 15.7-.05 1.33.06 2.69-.31 4-4 0-7.99-.07-11.99-.01-3.1.04-6.2.33-9.27.79-2.4.36-3.65 1.76-4.13 4.02-.65 3.05-1.64 5.98-2.81 8.87-2 4.93-4.74 9.4-8.03 13.54-4 5.04-8.69 9.35-13.88 13.14-.51.37-1.1.67-1.3 1.35l-8.28 3.11c-8.8 3.02-17.78 5.11-27.14 5.15-.47 0-.94.13-1.41.21zm53.67-61.05c.11-5.4-.28-9.74-1.16-13.06-2.17-8.2-6.34-15.29-12.21-21.36-5.98-6.18-13.02-10.77-21.19-13.5-4.09-1.37-8.3-2.19-12.65-2.21-3.12 0-6.19.4-9.26.87-7.79 1.19-14.87 4.06-21.24 8.7-6.14 4.47-10.71 10.22-13.95 17.05-2.73 5.75-4.19 11.87-4.65 18.19-.44 6.07-.05 12.12 1.4 18.06 1.86 7.64 5.08 14.63 10.26 20.57 9.27 10.66 21.19 15.76 35.17 16.31 4.16.16 8.25-.4 12.32-1.29 7.97-1.75 14.98-5.37 21.09-10.71 5.61-4.9 9.91-10.81 12.72-17.74 2.03-4.99 3.24-10.16 3.34-15.56.03-1.44 0-2.88 0-4.32zm-257.6.45h-.05v3.84c.03 1.28-.02 2.58.2 3.83.88 4.89 2.43 9.58 4.85 13.93 5 8.97 11.85 16.18 20.73 21.41 5.79 3.41 12.03 5.5 18.69 6.13 3.89.37 7.82.21 11.69-.48 6.41-1.14 12.46-3.24 18.04-6.68 6.66-4.11 11.91-9.56 15.85-16.3 4.75-8.12 6.62-17.01 6.83-26.31.03-1.35-.26-2.7-.28-4.05-.05-2.64-.46-5.23-1-7.81-2.61-12.64-9.21-22.62-19.88-29.86-5.42-3.67-11.42-5.94-17.81-7.25-2.75-.56-5.54-.66-8.31-.86-2.94-.21-5.87.28-8.78.79-9.54 1.65-17.8 5.92-24.92 12.38-5.82 5.28-10.19 11.62-12.98 19-1.67 4.42-2.79 8.97-2.87 13.73-.03 1.52 0 3.04 0 4.55z" fill="#072d4e"/><path d="m429.4 85.17c-.13 2.36.22 4.68-.43 6.96a3.06 3.06 0 0 0 .02 1.67c.59 1.96.33 3.96.39 5.95l.01 4.32c.11 3.12-.35 6.21-.59 9.29-.38 4.81-1.15 9.61-2.39 14.28-1.45 5.44-3.05 10.85-5.19 16.08a61.07 61.07 0 0 1 -5.96 11.14c-3.7 5.45-8.32 10.04-13.95 13.57-3.77 2.37-7.85 3.7-12.21 4.48-2.63.47-5.24.35-7.86.37-3.01 0-5.4-1.29-6.99-3.84-1.95-3.1-3.94-6.16-6.22-9.04l-7.94-10.15-5.41-6.98-12.16-15.93-3.35-4.34c-1.76-2.42-2.16-5.22-1.65-8.18.69-4.03 2.22-7.77 3.78-11.51 2.38-5.68 5.34-11.03 8.82-16.1 1.89-2.75 3.92-5.4 6.06-7.97 3.07-3.7 6.56-6.98 9.99-10.32 2.11-2.05 4.42-3.89 6.72-5.73 2.66-2.14 5.35-4.26 8.11-6.28 7.09-5.2 14.58-9.68 22.98-12.46 4.96-1.64 10.02-2.44 15.25-2.17 2.48.13 4.37 1.7 4.85 4.13l2.83 14.69c.45 2.49.67 5.03 1.08 7.53.52 3.22.74 6.46 1.06 9.7.23 2.31.21 4.61.35 6.85zm-229.04 192.06c.17-1.45.69-2.79 1.37-4.06l3.29-5.84c2.36-3.71 3.74-7.73 4.24-12.09.13-1.11.33-2.21.63-3.29 1.04-3.77 3.11-6.86 6.51-8.84 5.24-3.05 10.87-4.97 17.02-4.95 2.81 0 5.54.64 8.21 1.48 2.9.92 5.64 2.22 8.3 3.68 1.34.73 2.55 1.65 3.54 2.82 1.44 1.69 2.37 3.59 2.4 5.86.06 4.89 1.32 9.46 3.61 13.75l3.28 6.12c.77 1.4 1.51 2.81 1.85 4.4-.05.15-.1.3-.14.46-.55 1.9-.72 2.03-2.82 2.13-.81-2.49-2.46-3.86-5.14-3.81-2.46.04-3.85 1.32-4.09 3.77-.08.79-.02 1.6-.09 2.39-.23 2.58-1.55 4.09-4.08 4.64-2.22.48-4.28.07-6.13-1.28a11.28 11.28 0 0 1 -2.38-2.35c-2.21-2.94-3.32-6.22-2.62-9.88.46-2.41 1.13-3.12 3.36-2.37.08.03.15.06.23.07 2.9.55 5.47-.94 6.35-3.78.4-1.29.68-2.63.85-3.97.17-1.37-.16-2.71-.92-3.88-2.12-3.27-6.57-4.3-9.9-2.32-.62.37-1.21.78-1.85 1.11s-1.31.55-2.05.61c-1.53.13-2.81-.37-3.97-1.33-.79-.66-1.57-1.36-2.64-1.59-3.47-.76-8.04 1.76-8.99 5.19-.7 2.53-.5 5.1.87 7.42 1.17 1.97 2.98 2.79 5.27 2.46.47-.07.95-.13 1.43-.12 2.07.03 3.07.98 3.26 3.02.34 3.65-.72 6.93-2.64 9.99-.56.9-1.31 1.62-2.25 2.1-2.3 1.17-4.7 1.41-7.2.73-1.65-.45-2.56-1.51-2.84-3.18-.16-.95-.18-1.88-.14-2.85.12-2.95-1.53-4.54-4.5-4.67-2.68-.11-4.68.77-5.6 3.46-.05.15-.13.29-.2.44-1.35.19-2.02-.74-2.7-1.64h.01z" fill="#fa8d97"/><path d="m203.07 278.87.2-.44c.92-2.69 2.92-3.58 5.6-3.46 2.98.13 4.62 1.72 4.5 4.67-.04.97-.02 1.9.14 2.85.28 1.66 1.19 2.73 2.84 3.18 2.5.68 4.9.44 7.2-.73.94-.48 1.69-1.2 2.25-2.1 1.91-3.06 2.97-6.34 2.64-9.99-.19-2.04-1.19-2.99-3.26-3.02-.47 0-.95.05-1.43.12-2.3.33-4.1-.49-5.27-2.46-1.37-2.32-1.57-4.89-.87-7.42.95-3.43 5.51-5.95 8.99-5.19 1.06.23 1.84.93 2.64 1.59 1.15.97 2.44 1.46 3.97 1.33.74-.06 1.41-.29 2.05-.61.64-.33 1.23-.74 1.85-1.11 3.33-1.98 7.77-.95 9.9 2.32.76 1.17 1.09 2.51.92 3.88a22.46 22.46 0 0 1 -.85 3.97c-.88 2.84-3.44 4.33-6.35 3.78-.08-.01-.15-.05-.23-.07-2.23-.75-2.9-.04-3.36 2.37-.7 3.66.41 6.95 2.62 9.88a11.28 11.28 0 0 0 2.38 2.35c1.85 1.34 3.91 1.76 6.13 1.28 2.53-.55 3.85-2.06 4.08-4.64.07-.79 0-1.6.09-2.39.24-2.46 1.63-3.73 4.09-3.77 2.68-.05 4.33 1.32 5.14 3.81l-.08 4.31c-.19 4.31-2.24 7.65-5.75 9.97-3.7 2.44-7.87 3.51-12.31 2.94-2.9-.37-5.49-1.61-7.78-3.44l-1.88-1.48c-.58-.45-1.18-.44-1.76-.01-.45.33-.88.69-1.32 1.03-3.22 2.42-6.87 3.78-10.86 3.87-6.49.15-11.53-2.7-15.07-8.11-.91-1.4-1.31-3.06-1.34-4.78-.02-1.43.06-2.88-.44-4.27h-.01z" fill="#072d4e"/><path d="m307.62 301.27c.47-.07.94-.2 1.41-.21 9.37-.04 18.35-2.13 27.14-5.15 2.79-.96 5.52-2.07 8.28-3.11.71 1.15 1.77 2.02 2.53 3.15 2.94 4.34 3.14 8.95 1.23 13.62-.99 2.42-2.75 4.49-4.9 6.08-3.49 2.59-7.36 4.38-11.61 5.31-.46.1-.95.12-1.42.13l-3.35.04c-4.23.16-8.17-.89-11.92-2.8-.78-.4-1.57-.77-2.36-1.16-2.09-1.05-3.45-2.71-4.24-4.91-.93-2.58-1.29-5.23-1.26-7.94.01-1.02.3-2.03.46-3.05zm-186.41-8.32c1.59.19 3.03.84 4.47 1.46 4.15 1.79 8.29 3.62 12.64 4.91a37.39 37.39 0 0 0 10.56 1.56c3.17.01 6.36-.19 9.52.18.22 3.58-.52 6.92-2.18 10.12-2.1 4.02-5.31 6.67-9.55 8.1-2.64.89-5.38 1.53-8.17 1.26-3.47-.34-6.87-1.04-10.13-2.42-2.99-1.26-5.62-2.96-7.77-5.38-2.21-2.48-3.68-5.39-4.31-8.65-.55-2.83.53-5.37 2.02-7.67.81-1.25 1.68-2.53 2.9-3.46z" fill="#fa8d97"/><path d="m69.76 227.07c-.35-3.05-.16-6.04.73-9 .62-2.05 1.04-4.17 1.49-6.27.39-1.79-.09-2.59-1.89-2.9-3.46-.61-6.85-1.44-10.21-2.44-4.6-1.37-9.03-3.17-13.25-5.43a71.71 71.71 0 0 1 -10.8-7.08c-4.26-3.39-8.19-7.1-11.73-11.25-5.47-6.42-10.02-13.43-13.81-20.93-4.08-8.08-6.91-16.62-8.59-25.52-.54-2.89-.87-5.82-1.19-8.75-.66-5.98-.6-11.98-.24-17.94.2-3.33.22-6.68.67-10.01.33-2.44.15-4.95.18-7.43.05-4.79.48-9.55.81-14.32.29-4.15.96-8.23 1.67-12.3 1.23-7.14 2.7-14.22 4.58-21.23 2.61-9.74 6.05-19.15 10.75-28.09 1.64-3.11 3.48-6.1 5.63-8.89 2.8-3.62 6.4-5.94 10.82-7.04a5.17 5.17 0 0 1 1.18-.17c3.75-.1 7.48-.21 11.23.33 5.68.82 11.29 1.9 16.84 3.34 7.42 1.92 14.64 4.39 21.67 7.46 8.15 3.55 15.87 7.86 23.19 12.9 6.65 4.59 12.85 9.72 18.66 15.34 4.08 3.95 7.95 8.08 11.64 12.38 3.17 3.69 6.15 7.55 8.96 11.53 3.31 4.69 6.57 9.42 9.46 14.4 2.62 4.5 4.87 9.15 6.15 14.23a12.88 12.88 0 0 0 .59 1.82c.65 1.52 1.68 2.02 3.27 1.56.84-.24 1.65-.6 2.46-.93 5.77-2.34 11.67-4.26 17.71-5.74 3.87-.94 7.78-1.61 11.7-2.31 4.23-.76 8.51-1.17 12.76-1.76 2.44-.34 4.92-.46 7.38-.55 4.7-.17 9.39-.66 14.11-.46 4.38.18 8.75.33 13.11.79l5.95.55c3.64.44 7.25.99 10.85 1.67 5.79 1.09 11.52 2.46 17.15 4.19 3.35 1.03 6.65 2.23 9.97 3.36 1.13.39 2.23.89 3.39 1.18 2.23.55 3.87-.09 4.81-2.04l3.19-6.44c5.03-10.29 11.02-19.99 18-29.06 3.22-4.17 6.6-8.21 10.32-11.96 3.66-3.68 7.28-7.4 11.27-10.74 5.4-4.51 11.02-8.7 16.99-12.43 5.49-3.43 11.15-6.54 17.02-9.26 7.03-3.25 14.22-6.06 21.63-8.3 3.66-1.11 7.3-2.26 11.09-2.84 1.65-.25 3.29-.59 4.95-.71a195.98 195.98 0 0 1 9.07-.48c2.89-.08 5.7.43 8.45 1.35 3.84 1.29 6.91 3.62 9.31 6.82 4.33 5.79 7.57 12.17 10.13 18.93 3 7.92 5.33 16.03 7.35 24.24 1.56 6.33 2.85 12.73 3.73 19.21.58 4.26 1.08 8.52 1.48 12.81.26 2.79.31 5.57.43 8.36.12 2.87.45 5.72.36 8.6-.06 1.99-.5 3.95-.41 5.96.05 1.05.05 2.08.59 3.01.38.65.44 1.35.44 2.08v17.27c0 .56.05 1.12-.21 1.65-1.55 3.11-2.07 6.51-2.66 9.88-.44 2.52-1.1 4.97-1.93 7.39-1.94 5.67-4.13 11.23-6.89 16.55-3.24 6.25-6.99 12.2-11.61 17.53-7.18 8.28-15.51 15.14-25.42 19.99-3.3 1.61-6.65 3.11-10.06 4.45-2.09.82-4.32 1.09-6.48 1.61-.46.11-.95.14-1.4.27-4.67 1.37-4.86 3.24-4.24 7.12.2 1.25.56 2.48.84 3.72.46 2.04.42 4.12.39 6.19-1.51.02-3.03 0-4.53.31-.61.12-1.29.12-1.9-.02-.95-.22-1.9-.23-2.86-.24-3.35-.03-6.71-.07-10.06 0-2.53.06-4.29-1.05-5.41-3.22-.44-.84-.75-1.76-1.05-2.66-.93-2.81-2.13-5.52-3.52-8.11-3.86-7.25-8.83-13.63-15.16-18.95-5.29-4.44-10.97-8.22-17.4-10.81-5.06-2.04-10.31-3.36-15.74-3.72-4.94-.33-9.86-.07-14.77.81-9.61 1.73-18.27 5.49-25.88 11.62a66.9 66.9 0 0 0 -17.04 20.48c-3.18 5.89-5.16 12.16-5.62 18.87-.04.65-.15 1.26-.43 1.85-.43.88-1 1.2-1.93.92-.68-.21-1.34-.53-1.97-.86-3.83-2.04-7.87-3.5-12.16-4.13-3.4-.5-6.85-.5-10.26.03-3.97.62-7.69 2-11.24 3.88-.98.52-1.97 1.05-3.07 1.33-.93.23-1.6.03-1.94-.83-.35-.88-.59-1.8-.69-2.77-.27-2.45-.7-4.88-1.27-7.28-2.39-10.05-7.48-18.58-14.61-25.94-2.67-2.76-5.67-5.14-8.75-7.43-9.12-6.78-19.49-9.98-30.73-10.56-4.24-.22-8.44.18-12.61.93-6.81 1.22-13.22 3.56-19.11 7.22-7.1 4.42-13.41 9.77-18.66 16.31-4.59 5.72-8.08 12.04-9.91 19.2-.18.69-.41 1.38-.69 2.03-.54 1.23-1.4 2.05-2.8 2.35a16.02 16.02 0 0 1 -3.08.32l-18.69.08v-.03zm359.64-141.9c-.15-2.24-.13-4.54-.35-6.85-.32-3.24-.54-6.48-1.06-9.7-.41-2.5-.63-5.04-1.08-7.53l-2.83-14.69c-.48-2.43-2.37-4-4.85-4.13-5.23-.28-10.29.53-15.25 2.17-8.41 2.78-15.89 7.26-22.98 12.46-2.76 2.02-5.45 4.13-8.11 6.28-2.29 1.85-4.61 3.69-6.72 5.73-3.43 3.33-6.92 6.61-9.99 10.32-2.14 2.58-4.17 5.22-6.06 7.97-3.48 5.07-6.44 10.42-8.82 16.1-1.57 3.74-3.09 7.48-3.78 11.51-.51 2.96-.11 5.76 1.65 8.18 1.07 1.47 2.25 2.88 3.35 4.34l12.16 15.93 5.41 6.98 7.94 10.15c2.28 2.87 4.28 5.93 6.22 9.04 1.59 2.54 3.98 3.85 6.99 3.84 2.62 0 5.22.1 7.86-.37 4.36-.78 8.44-2.11 12.21-4.48 5.62-3.53 10.25-8.12 13.95-13.57a61.07 61.07 0 0 0 5.96-11.14c2.15-5.23 3.74-10.64 5.19-16.08 1.25-4.67 2.01-9.47 2.39-14.28.24-3.08.7-6.17.59-9.29-.05-1.44.02-2.88-.01-4.32-.05-1.98.2-3.98-.39-5.95a3.26 3.26 0 0 1 -.02-1.67c.65-2.28.3-4.6.43-6.96zm-351.79 87.19c3.56.18 6.74-1.25 9.74-3.41 2.18-1.58 3.8-3.6 5.37-5.71l9.1-12.25 7.8-10.54c3.29-4.4 6.72-8.68 10.34-12.81 1.97-2.25 3.54-4.68 4.58-7.47.82-2.19.82-4.51 1.23-6.76-.63-1.5-.37-3.13-.75-4.69-.73-2.96-1.82-5.76-3.11-8.49-1.4-2.95-3.06-5.76-4.73-8.57-3.75-6.32-8.18-12.14-13.13-17.54-3.88-4.23-8.04-8.18-12.55-11.77-3.05-2.43-6.1-4.86-9.32-7.05-5.93-4.02-11.98-7.87-18.66-10.54-4.5-1.8-9.06-3.45-14.02-3.46-.39 0-.79-.06-1.18-.13-1.75-.32-3.44.22-5.16.34-.76.05-1.51.59-1.94 1.29-.54.88-1.04 1.78-1.23 2.83-.21 1.17-.5 2.32-.77 3.48-.7 3.09-1.52 6.16-2.08 9.27-.46 2.57-.81 5.17-1.15 7.76-.27 2.04-.36 4.1-.72 6.13-.36 2.01-.32 4.11-.47 6.17-.31 4.12-.12 8.27-.49 12.41-.2 2.2-.05 4.43.28 6.66.33 2.27.09 4.63.11 6.94 0 1.28-.19 2.61.1 3.82.6 2.42.38 4.9.75 7.34.41 2.66.76 5.34 1.26 7.98.55 2.87 1.27 5.71 2.1 8.54 2.79 9.58 6.91 18.43 13.15 26.28 2.36 2.97 5.15 5.41 8.18 7.62 2.33 1.69 4.89 2.96 7.49 4.14 3.07 1.39 6.27 2.26 9.87 2.2h.01zm318.25 78.74-1.1 8.04-1.27 7.77c-.96 6.84-3.02 13.35-5.82 19.64-3.2 7.19-7.37 13.79-12.24 19.94-1.58 2-3.3 3.91-5.07 5.74-3.72 3.85-7.47 7.67-11.64 11.05-5.08 4.13-10.33 8.04-15.88 11.52a156.56 156.56 0 0 1 -17.02 9.29c-7.81 3.65-15.86 6.67-24.13 9.12-.75.22-1.59.28-2.03 1.09-.64-.18-1.23-.04-1.86.15-2.73.85-5.45 1.79-8.24 2.38-1.77.38-3.29.99-4.6 2.21-1.28-.49-2.58-.73-3.96-.41-6.05 1.39-12.19 2.3-18.33 3.16-4.57.64-9.17 1.09-13.77 1.43-4.21.31-8.44.44-12.67.51-4.79.08-9.57.07-14.35-.37-3.09-.29-6.22-.27-9.3-.63-1.74-.2-3.5-.26-5.23-.48l-9.69-1.31-8.02-1.23-9.15-1.66-11.91-3.43c-.76-.22-1.49-.59-2.32-.34-.73-1-1.93-1.06-2.95-1.37-8.19-2.44-16.1-5.56-23.86-9.12-7.78-3.56-15.18-7.77-22.23-12.61-5.66-3.88-11.02-8.13-16.07-12.81-2.93-2.72-5.7-5.58-8.38-8.54-4.5-4.98-8.44-10.38-11.85-16.18-2.96-5.04-5.33-10.35-7.15-15.89-1.19-3.62-2.14-7.32-2.78-11.1-.74-4.41-1.28-8.82-1.34-13.29 0-.32.04-.64.06-.95a47.89 47.89 0 0 1 6.67-.42c1.84.01 3.66.33 5.48.35 3.04.04 6.03.53 9.06.58 1.52.02 2.56.77 3.15 2.15a21.77 21.77 0 0 1 .54 1.33c1.8 5.04 3.91 9.92 6.59 14.57 2.08 3.61 4.46 6.99 7.32 10.01 3.29 3.48 6.8 6.73 10.55 9.73.79.63 1.71 1.19 2.11 2.22-1.23.94-2.1 2.21-2.9 3.46-1.49 2.3-2.56 4.84-2.02 7.67.63 3.26 2.09 6.16 4.31 8.65 2.15 2.41 4.78 4.11 7.77 5.38 3.26 1.38 6.66 2.08 10.13 2.42 2.79.27 5.53-.37 8.17-1.26 4.24-1.42 7.45-4.07 9.55-8.1a18.87 18.87 0 0 0 2.18-10.12l9.07-2.04c3.74-.85 7.38-2 10.78-3.78 4.9-2.56 9.36-5.76 13.39-9.54 2.44-2.29 4.87-4.58 7.12-7.07.48-.53.9-1.13 1.6-1.41.69.9 1.35 1.84 2.7 1.64.5 1.38.42 2.83.44 4.27.03 1.72.42 3.38 1.34 4.78 3.53 5.41 8.58 8.26 15.07 8.11 3.99-.09 7.64-1.45 10.86-3.87.45-.34.87-.7 1.32-1.03.58-.42 1.18-.43 1.76.01l1.88 1.48c2.29 1.83 4.88 3.07 7.78 3.44 4.44.57 8.61-.5 12.31-2.94 3.51-2.32 5.56-5.66 5.75-9.97.06-1.43.05-2.87.08-4.31 2.1-.1 2.27-.22 2.82-2.13.04-.15.09-.3.14-.46.34.2.71.37 1.01.61 1.95 1.55 3.5 3.47 5.08 5.37 1.43 1.71 2.73 3.56 4.44 5.02 7.04 6.02 15.14 9.95 24.07 12.27 2.78.72 5.59 1.2 8.4 1.72-.16 1.02-.45 2.03-.46 3.05-.04 2.71.33 5.36 1.26 7.94.8 2.2 2.15 3.86 4.24 4.91l2.36 1.16c3.74 1.91 7.69 2.95 11.92 2.8 1.12-.04 2.23-.01 3.35-.04.48-.01.96-.03 1.42-.13 4.25-.93 8.12-2.72 11.61-5.31 2.15-1.59 3.9-3.66 4.9-6.08 1.91-4.67 1.71-9.28-1.23-13.62-.77-1.13-1.82-2-2.53-3.15.19-.68.79-.98 1.3-1.35 5.19-3.78 9.88-8.1 13.88-13.14 3.29-4.14 6.04-8.61 8.03-13.54 1.17-2.89 2.16-5.83 2.81-8.87.48-2.26 1.73-3.66 4.13-4.02 3.08-.46 6.17-.74 9.27-.79 3.99-.06 7.99 0 11.99.01z" fill="#9a6bbb"/><path d="m166.27 354.28c.83-.25 1.56.12 2.32.34l11.91 3.43-.05 2.38-.23 10.01c-.15.03-.35 0-.45.08-4.99 4.47-10.2 8.7-14.51 13.9-3.98 4.8-7.84 9.67-11.09 15-3.17 5.21-5.69 10.69-7.07 16.66-.84 3.62-1.09 7.26-.19 10.9.84 3.44 2.56 6.32 5.47 8.45 3.34 2.45 7.17 3.4 11.2 3.66 2.88.18 5.7-.13 8.53-.83 2.68-.66 3.46.24 2.78 2.85-1.7 6.55-3.6 13.05-4.21 19.83-.28 3.11-.43 6.19.04 9.29.23 1.48.33 2.99.49 4.48-1.55.62-2.83.04-3.92-1.02-.57-.55-1.02-1.23-1.48-1.88-2.02-2.9-4.3-5.56-6.81-8.03-7.64-7.49-16.86-10.38-27.38-9.24-4.02.44-7.7 2.01-11.12 4.16-3.48 2.19-6.39 5.03-9.25 7.95-.95.97-1.92 1.93-2.96 2.79-2.39 1.98-3.97 1.96-6.4-.01-.8-.65-1.52-1.41-2.26-2.14l-4.13-4.01c-4.78-4.49-10.49-6.49-17-6.52-7.02-.04-12.92 2.46-17.84 7.42-3.38 3.41-5.68 7.49-7.26 11.99-.37 1.05-.65 2.14-1 3.2-.3.91-.58 1.83-.96 2.7a4.4 4.4 0 0 1 -2.09 2.23c-3.1 1.58-7.26.42-9.05-2.54-.63-1.04-.99-2.17-1.29-3.34-1.58-6.2-2.81-12.45-3.45-18.82-.46-4.53-.8-9.07-.79-13.63.02-15.76 2.98-30.93 8.82-45.57 6.97-17.45 16.99-32.88 30.24-46.2l12.44-12.31c1.71-1.68 3.53-3.24 5.46-4.67 4.58-3.4 9.39-2.65 13.65-.02.47.29.89.69 1.23 1.12 2.59 3.33 3.78 6.99 2.58 11.2-.46 1.63-.42 3.15.87 4.45 4.79 4.79 10.07 8.86 16.47 11.3 7.88 3 15.66 2.43 23.32-.77 1.91-.8 3.77-1.74 5.57-2.76 3.82-2.18 7.42-4.7 10.85-7.45zm118.69 4.77c1.31-1.22 2.83-1.83 4.6-2.21 2.79-.59 5.51-1.54 8.24-2.38.63-.2 1.22-.33 1.86-.15 5.84 5.23 12.28 9.46 19.91 11.56 10.57 2.89 20.22 1 28.86-5.82 2.26-1.79 4.3-3.82 6.42-5.76 1.61-1.47 2.04-3.16 1.44-5.2-.58-1.95-.66-3.94-.29-5.93.57-3.08 2.1-5.43 5.05-6.83 4.28-2.04 8.28-1.83 12.18.99 5.52 3.99 10.65 8.43 15.34 13.37 8.33 8.77 15.87 18.17 22.31 28.43 7.37 11.74 12.56 24.38 15.6 37.91 1.54 6.86 2.85 13.76 3.39 20.78a139.78 139.78 0 0 1 .4 7.66c.16 7.22-.78 14.34-2.04 21.43l-2.17 11.28a15.26 15.26 0 0 1 -.57 2.08c-1.57 4.44-5.9 5.27-9.17 4.46-1.24-.31-2.1-1.17-2.62-2.3-.43-.94-.74-1.93-1.05-2.92-1.75-5.64-4.41-10.77-8.41-15.17-4.13-4.54-9.29-6.91-15.36-7.4-4.46-.36-8.75.4-12.83 2.26-3.25 1.49-6.04 3.58-8.18 6.47-.81 1.09-1.68 2.14-2.76 2.98-2.66 2.08-5.56 2.26-8.47.54-1.18-.7-2.18-1.61-3.14-2.58-1.85-1.89-3.73-3.72-5.8-5.38-3.66-2.94-7.68-5.16-12.29-6.21-5.6-1.28-11.11-.8-16.49 1.13-4.15 1.48-8.06 3.48-11.79 5.82-2.88 1.8-5.47 4-7.08 7.01-1.24 2.32-2.91 3.26-5.44 2.81-.17-2.78-.07-5.57-.28-8.36-.31-4.14-.83-8.24-1.62-12.3-.61-3.12-1.22-6.25-2.64-9.15-.28-.57-.47-1.19-.6-1.81-.38-1.83.8-3.3 2.69-3.44 1.31-.1 2.53.26 3.74.68 3.82 1.33 7.72 1.33 11.54.31 6.73-1.8 10.44-6.42 11.58-12.92.6-3.45.26-7-.59-10.45-1.55-6.26-4.22-12.01-7.66-17.44-6.08-9.58-13.65-17.86-22.14-25.32-.88-.77-1.67-1.72-2.85-2.12-.34-.91-.21-1.88-.27-2.82l-.51-7.56z" fill="#072d4e"/><path d="m77.61 172.36c-3.6.06-6.8-.81-9.87-2.2-2.61-1.18-5.17-2.45-7.49-4.14-3.03-2.21-5.82-4.65-8.18-7.62-6.24-7.85-10.37-16.7-13.15-26.28-.82-2.82-1.54-5.67-2.1-8.54-.51-2.63-.86-5.32-1.26-7.98-.37-2.44-.16-4.91-.75-7.34-.3-1.21-.09-2.54-.1-3.82-.02-2.32.21-4.67-.11-6.94-.32-2.24-.47-4.47-.28-6.66.37-4.14.18-8.29.49-12.41.15-2.06.12-4.16.47-6.17.36-2.04.45-4.1.72-6.13.34-2.59.69-5.19 1.15-7.76.56-3.11 1.38-6.18 2.08-9.27.26-1.16.55-2.31.77-3.48.19-1.05.69-1.95 1.23-2.83.44-.7 1.18-1.24 1.94-1.29 1.72-.12 3.42-.65 5.16-.34.39.07.79.13 1.18.13 4.96 0 9.52 1.66 14.02 3.46 6.68 2.67 12.73 6.52 18.66 10.54 3.22 2.18 6.27 4.61 9.32 7.05 4.51 3.59 8.67 7.54 12.55 11.77 4.95 5.4 9.38 11.22 13.13 17.54 1.67 2.81 3.33 5.62 4.73 8.57 1.3 2.73 2.39 5.53 3.11 8.49.38 1.56.13 3.19.75 4.69-.42 2.25-.42 4.58-1.23 6.76-1.04 2.79-2.62 5.23-4.58 7.47-3.62 4.13-7.05 8.41-10.34 12.81l-7.8 10.54-9.1 12.25c-1.57 2.11-3.19 4.13-5.37 5.71-3 2.17-6.17 3.59-9.74 3.41h-.01z" fill="#fa8d97"/><path d="m285.75 369.42c-.37.75-.2 1.56-.26 2.35-.51 6.82-2.16 13.3-5.89 19.11-2.74 4.27-6.61 7.23-11.29 9.16-1.97-.42-3.97-.12-5.95-.17-1.44-.04-2.89-.03-4.21-.65-1.23-.58-2.3-.27-3.4.31-.8.42-1.46.99-1.98 1.69-2.2 2.97-5.2 4.93-8.48 6.39-5.45 2.42-11.16 2.92-17.02 1.83-4.76-.88-8.84-2.99-12.23-6.47-1.17-1.2-2.21-2.5-3.23-3.83-.86-1.12-1.88-1.58-3.33-.91-1.23.57-2.6.64-3.97.64-2.39-.01-4.78.05-7.17.08-6.64-2.85-11.21-7.72-13.85-14.4-1.64-4.16-2.54-8.51-3-12.95-.04-.39-.16-.77-.25-1.16l.23-10.01.05-2.38 9.15 1.66a310.37 310.37 0 0 0 8.02 1.23l9.69 1.31c1.74.22 3.49.28 5.23.48 3.08.36 6.21.34 9.3.63 4.78.45 9.56.45 14.35.37 4.22-.07 8.46-.2 12.67-.51 4.6-.34 9.2-.79 13.77-1.43 6.14-.86 12.28-1.77 18.33-3.16 1.37-.31 2.67-.08 3.96.41l.51 7.56c.06.94-.07 1.9.27 2.82z" fill="#fff"/><path d="m197.31 398.95 7.17-.08c1.37 0 2.74-.06 3.97-.64 1.45-.67 2.47-.21 3.33.91l3.23 3.83c3.39 3.48 7.47 5.59 12.23 6.47 5.87 1.09 11.58.59 17.02-1.83 3.28-1.46 6.28-3.42 8.48-6.39a5.69 5.69 0 0 1 1.98-1.69c1.11-.58 2.17-.88 3.4-.31 1.32.62 2.77.6 4.21.65 1.98.06 3.98-.24 5.95.17l-.04 3.11c0 4.61-1.23 8.95-3.01 13.13-1.25 2.93-2.84 5.69-4.72 8.28-3.68 5.04-8.15 9.13-13.89 11.67-2.91 1.29-6 1.98-9.15 2.46-2.14.33-4.26.42-6.41.44-4.44.03-8.67-.98-12.64-2.9-2.65-1.28-5.09-2.93-7.25-4.98-2.83-2.7-5.51-5.54-7.72-8.78-2.43-3.58-4.17-7.47-5.27-11.67-1.03-3.91-.94-7.88-.89-11.85z" fill="#fa8d97"/><path d="m361.29 240.22v4.32c-.1 5.4-1.32 10.57-3.34 15.56-2.82 6.93-7.11 12.84-12.72 17.74-6.11 5.34-13.12 8.96-21.09 10.71-4.07.89-8.16 1.45-12.32 1.29-13.98-.54-25.89-5.65-35.17-16.31-5.18-5.95-8.4-12.94-10.26-20.57-1.45-5.94-1.85-11.99-1.4-18.06.46-6.31 1.93-12.43 4.65-18.19 3.24-6.83 7.81-12.59 13.95-17.05 6.37-4.63 13.45-7.5 21.24-8.7 3.08-.47 6.14-.89 9.26-.87 4.35.02 8.56.84 12.65 2.21 8.17 2.74 15.21 7.33 21.19 13.5 5.87 6.07 10.03 13.16 12.21 21.36.88 3.31 1.27 7.66 1.16 13.06zm-80.09 5.07v2.88c-.05 1.85.3 3.65.8 5.42 2.03 7.13 6.43 12.4 12.84 15.97 5.91 3.3 12.24 4.24 18.94 3.13 9.34-1.54 16.11-6.51 20.36-14.91 1.55-3.07 2.28-6.41 2.79-9.83.51-3.38.39-6.71-.29-9.98-1.48-7.13-5.28-12.76-11.49-16.65-7.46-4.67-15.43-5.67-23.84-3.13-5.66 1.71-10.33 4.98-14.12 9.45-2.49 2.94-4.3 6.3-5.35 10.06-.7 2.51-.71 5.04-.63 7.6h-.01zm-177.51-4.62v-4.55c.09-4.76 1.2-9.3 2.87-13.73 2.79-7.38 7.16-13.72 12.98-19 7.12-6.46 15.38-10.73 24.92-12.38 2.91-.5 5.84-.99 8.78-.79 2.77.2 5.56.29 8.31.86 6.39 1.31 12.4 3.57 17.81 7.25 10.68 7.24 17.27 17.22 19.88 29.86.53 2.58.95 5.17 1 7.81.02 1.35.31 2.7.28 4.05-.21 9.3-2.08 18.19-6.83 26.31-3.94 6.74-9.19 12.19-15.85 16.3-5.58 3.44-11.63 5.53-18.04 6.68-3.87.69-7.8.85-11.69.48-6.66-.63-12.9-2.72-18.69-6.13-8.88-5.23-15.73-12.44-20.73-21.41-2.42-4.35-3.97-9.04-4.85-13.93-.22-1.25-.17-2.55-.2-3.83s0-2.56 0-3.84h.05zm52.09-23.81c-1.35.08-2.74 0-4.06.25-7.65 1.51-14.01 5.18-18.64 11.57-2.58 3.56-4.06 7.52-4.51 11.93-.18 1.78.09 3.48.07 5.22-.02 1.84.14 3.66.53 5.46 1.8 8.35 6.16 14.84 13.93 18.68 7.5 3.71 15.32 4.11 23.24 1.55 7.12-2.3 12.29-6.98 15.49-13.73 1.4-2.96 2.17-6.11 2.62-9.39a25.24 25.24 0 0 0 -.29-8.55c-2.78-13.59-15.65-23.35-28.37-22.99z" fill="#9a6bbb"/><path d="m281.2 245.29c-.08-2.56-.07-5.09.63-7.6 1.05-3.76 2.86-7.11 5.35-10.06 3.79-4.48 8.46-7.75 14.12-9.45 8.41-2.54 16.38-1.54 23.84 3.13 6.21 3.89 10.01 9.52 11.49 16.65.68 3.27.79 6.6.29 9.98-.51 3.42-1.24 6.76-2.79 9.83-4.25 8.4-11.02 13.38-20.36 14.91-6.7 1.1-13.03.17-18.94-3.13-6.4-3.58-10.81-8.85-12.84-15.97-.5-1.76-.85-3.56-.8-5.42.03-.96 0-1.92 0-2.88zm32.14-6.25c0 3.63 2.68 7.25 6.27 8.54 2.17.78 4.23.57 6.2-.62 2.03-1.23 3.61-2.91 4.63-5.05 1.37-2.85 1.05-5.58-.91-8.08-1.16-1.47-2.63-2.56-4.41-3.18-1.36-.48-2.75-.83-4.22-.58-4.19.71-7.56 4.71-7.56 8.96zm2.71 9.98c-.96.01-1.9.11-2.77.57-1.44.76-1.92 2.01-1.9 3.56.02 1.48.53 2.66 1.91 3.3 1.24.58 2.59.76 3.95.69.93-.05 1.63-.6 2.08-1.42a5.63 5.63 0 0 0 .73-2.73c.01-2.54-1.45-4-3.99-3.97zm-160.27-32.16c12.71-.36 25.59 9.4 28.37 22.99.57 2.8.69 5.64.29 8.55-.45 3.28-1.22 6.44-2.62 9.39-3.2 6.75-8.37 11.43-15.49 13.73-7.91 2.56-15.74 2.16-23.24-1.55-7.77-3.85-12.13-10.33-13.93-18.68-.39-1.81-.55-3.62-.53-5.46.02-1.74-.25-3.44-.07-5.22.46-4.41 1.93-8.37 4.51-11.93 4.63-6.39 10.98-10.06 18.64-11.57 1.32-.26 2.7-.18 4.06-.25zm-20.3 22.13h-.02c0 .32-.02.64 0 .96.36 5.06 2.5 7.62 7.67 7.91.16 0 .32.05.47.05 3.97-.03 7.23-1.87 7.89-6.39.36-2.47.12-4.94-.86-7.27-1.08-2.58-3.09-4.01-5.88-4.19-.93-.06-1.9.14-2.83.32-4.4.86-6.04 3.53-6.45 7.18-.05.47 0 .95 0 1.43zm14.84 9.99c-.7.11-1.43.13-2.1.33-1.74.53-2.65 1.88-2.65 3.8s.94 3.16 2.78 3.66c.69.19 1.4.29 2.11.37 1.81.19 2.9-.48 3.44-2.19.21-.67.27-1.4.3-2.11.08-2.1-1.41-4-3.88-3.87z" fill="#072d4e"/><path d="m313.34 239.04c0-4.25 3.37-8.25 7.56-8.96 1.47-.25 2.86.1 4.22.58 1.77.62 3.24 1.71 4.41 3.18 1.97 2.5 2.28 5.23.91 8.08-1.02 2.13-2.6 3.81-4.63 5.05-1.96 1.19-4.02 1.4-6.2.62-3.59-1.29-6.26-4.92-6.27-8.54zm2.71 9.98c2.54-.03 4 1.44 3.99 3.97 0 .98-.26 1.89-.73 2.73-.45.81-1.16 1.36-2.08 1.42-1.36.07-2.71-.11-3.95-.69-1.37-.64-1.89-1.82-1.91-3.3-.02-1.55.47-2.8 1.9-3.56.87-.46 1.81-.56 2.77-.57zm-180.57-10.03c0-.48-.05-.96 0-1.43.41-3.65 2.05-6.33 6.45-7.18.93-.18 1.9-.38 2.83-.32 2.79.18 4.8 1.62 5.88 4.19.98 2.32 1.22 4.8.86 7.27-.66 4.52-3.92 6.35-7.89 6.39-.16 0-.32-.04-.47-.05-5.17-.29-7.31-2.85-7.67-7.91-.02-.32 0-.64 0-.96h.02zm14.84 9.99c2.47-.14 3.96 1.76 3.88 3.87-.03.71-.09 1.44-.3 2.11-.54 1.71-1.63 2.37-3.44 2.19-.71-.07-1.42-.18-2.11-.37-1.84-.5-2.78-1.78-2.78-3.66s.91-3.27 2.65-3.8c.67-.2 1.4-.23 2.1-.33z" fill="#fff"/></svg>